<mxfile host="app.diagrams.net" modified="2024-03-10T13:35:40.241Z" agent="Mozilla/5.0 (Windows NT 10.0; Win64; x64) AppleWebKit/537.36 (KHTML, like Gecko) Chrome/122.0.0.0 Safari/537.36" etag="k7KLMRdfrrJ8U95LQafJ" version="24.0.1" type="device">
  <diagram name="Pagina-1" id="JcZuSGOJAmD0GusaPZ4x">
    <mxGraphModel dx="1434" dy="754" grid="0" gridSize="10" guides="1" tooltips="1" connect="1" arrows="1" fold="1" page="1" pageScale="1" pageWidth="1169" pageHeight="827" math="0" shadow="0">
      <root>
        <mxCell id="0" />
        <mxCell id="1" parent="0" />
        <mxCell id="xAsMjt-651Cm-5IpBTxu-1" value="&lt;p style=&quot;margin:0px;margin-top:4px;text-align:center;&quot;&gt;&lt;i&gt;&amp;lt;&amp;lt;Interface&amp;gt;&amp;gt;&lt;/i&gt;&lt;br&gt;&lt;b&gt;Movable&lt;/b&gt;&lt;/p&gt;&lt;hr size=&quot;1&quot; style=&quot;border-style:solid;&quot;&gt;&lt;p style=&quot;margin:0px;margin-left:4px;&quot;&gt;+ move(Pair&amp;lt;Integer, Integer&amp;gt; positionToMove): boolean&lt;br&gt;+ getCurrentPosition(): Pair&amp;lt;Integer,Integer&amp;gt;&lt;br&gt;&lt;/p&gt;&lt;hr size=&quot;1&quot; style=&quot;border-style:solid;&quot;&gt;&lt;p style=&quot;margin:0px;margin-left:4px;&quot;&gt;&lt;br&gt;&lt;/p&gt;" style="verticalAlign=top;align=left;overflow=fill;html=1;whiteSpace=wrap;" vertex="1" parent="1">
          <mxGeometry x="53" y="657" width="309" height="81" as="geometry" />
        </mxCell>
        <mxCell id="xAsMjt-651Cm-5IpBTxu-3" style="edgeStyle=orthogonalEdgeStyle;rounded=0;orthogonalLoop=1;jettySize=auto;html=1;exitX=0.5;exitY=1;exitDx=0;exitDy=0;entryX=0.5;entryY=0;entryDx=0;entryDy=0;endArrow=block;endFill=0;" edge="1" parent="1" source="xAsMjt-651Cm-5IpBTxu-2" target="xAsMjt-651Cm-5IpBTxu-1">
          <mxGeometry relative="1" as="geometry" />
        </mxCell>
        <mxCell id="xAsMjt-651Cm-5IpBTxu-2" value="BasicMovableObject" style="html=1;whiteSpace=wrap;" vertex="1" parent="1">
          <mxGeometry x="53" y="549" width="138" height="50" as="geometry" />
        </mxCell>
        <mxCell id="xAsMjt-651Cm-5IpBTxu-5" style="edgeStyle=orthogonalEdgeStyle;rounded=0;orthogonalLoop=1;jettySize=auto;html=1;exitX=0;exitY=0.5;exitDx=0;exitDy=0;entryX=1;entryY=0.5;entryDx=0;entryDy=0;" edge="1" parent="1" source="xAsMjt-651Cm-5IpBTxu-4" target="xAsMjt-651Cm-5IpBTxu-2">
          <mxGeometry relative="1" as="geometry" />
        </mxCell>
        <mxCell id="xAsMjt-651Cm-5IpBTxu-6" value="delegate" style="edgeLabel;html=1;align=center;verticalAlign=middle;resizable=0;points=[];" vertex="1" connectable="0" parent="xAsMjt-651Cm-5IpBTxu-5">
          <mxGeometry x="0.0526" y="-2" relative="1" as="geometry">
            <mxPoint as="offset" />
          </mxGeometry>
        </mxCell>
        <mxCell id="xAsMjt-651Cm-5IpBTxu-7" style="edgeStyle=orthogonalEdgeStyle;rounded=0;orthogonalLoop=1;jettySize=auto;html=1;exitX=0.5;exitY=1;exitDx=0;exitDy=0;entryX=0.5;entryY=0;entryDx=0;entryDy=0;endArrow=block;endFill=0;" edge="1" parent="1" source="xAsMjt-651Cm-5IpBTxu-4" target="xAsMjt-651Cm-5IpBTxu-1">
          <mxGeometry relative="1" as="geometry" />
        </mxCell>
        <mxCell id="xAsMjt-651Cm-5IpBTxu-4" value="SafetyMovableObject" style="html=1;whiteSpace=wrap;" vertex="1" parent="1">
          <mxGeometry x="260" y="549" width="138" height="50" as="geometry" />
        </mxCell>
        <mxCell id="xAsMjt-651Cm-5IpBTxu-8" value="&lt;p style=&quot;margin:0px;margin-top:4px;text-align:center;&quot;&gt;&lt;i&gt;&amp;lt;&amp;lt;Interface&amp;gt;&amp;gt;&lt;/i&gt;&lt;br&gt;&lt;b&gt;RandomizePositionGenerator&lt;/b&gt;&lt;/p&gt;&lt;hr size=&quot;1&quot; style=&quot;border-style:solid;&quot;&gt;&lt;p style=&quot;margin:0px;margin-left:4px;&quot;&gt;+ getRandomPosition(int exclusiveMax) : Pair&amp;lt;Integer,Integer&amp;gt;&lt;br&gt;&lt;/p&gt;&lt;hr size=&quot;1&quot; style=&quot;border-style:solid;&quot;&gt;&lt;p style=&quot;margin:0px;margin-left:4px;&quot;&gt;&lt;br&gt;&lt;/p&gt;" style="verticalAlign=top;align=left;overflow=fill;html=1;whiteSpace=wrap;" vertex="1" parent="1">
          <mxGeometry x="53" y="221" width="341" height="65" as="geometry" />
        </mxCell>
        <mxCell id="xAsMjt-651Cm-5IpBTxu-13" style="edgeStyle=orthogonalEdgeStyle;rounded=0;orthogonalLoop=1;jettySize=auto;html=1;exitX=0.5;exitY=1;exitDx=0;exitDy=0;entryX=0.5;entryY=0;entryDx=0;entryDy=0;endArrow=block;endFill=0;" edge="1" parent="1" source="xAsMjt-651Cm-5IpBTxu-9" target="xAsMjt-651Cm-5IpBTxu-8">
          <mxGeometry relative="1" as="geometry" />
        </mxCell>
        <mxCell id="xAsMjt-651Cm-5IpBTxu-9" value="BasicPositionRandomizer" style="html=1;whiteSpace=wrap;" vertex="1" parent="1">
          <mxGeometry x="33" y="73" width="147" height="50" as="geometry" />
        </mxCell>
        <mxCell id="xAsMjt-651Cm-5IpBTxu-10" style="edgeStyle=orthogonalEdgeStyle;rounded=0;orthogonalLoop=1;jettySize=auto;html=1;exitX=0;exitY=0.5;exitDx=0;exitDy=0;entryX=1;entryY=0.5;entryDx=0;entryDy=0;" edge="1" parent="1" source="xAsMjt-651Cm-5IpBTxu-12" target="xAsMjt-651Cm-5IpBTxu-9">
          <mxGeometry relative="1" as="geometry" />
        </mxCell>
        <mxCell id="xAsMjt-651Cm-5IpBTxu-11" value="delegate" style="edgeLabel;html=1;align=center;verticalAlign=middle;resizable=0;points=[];" vertex="1" connectable="0" parent="xAsMjt-651Cm-5IpBTxu-10">
          <mxGeometry x="0.0526" y="-2" relative="1" as="geometry">
            <mxPoint as="offset" />
          </mxGeometry>
        </mxCell>
        <mxCell id="xAsMjt-651Cm-5IpBTxu-14" style="edgeStyle=orthogonalEdgeStyle;rounded=0;orthogonalLoop=1;jettySize=auto;html=1;exitX=0.5;exitY=1;exitDx=0;exitDy=0;entryX=0.5;entryY=0;entryDx=0;entryDy=0;endArrow=block;endFill=0;" edge="1" parent="1" source="xAsMjt-651Cm-5IpBTxu-12" target="xAsMjt-651Cm-5IpBTxu-8">
          <mxGeometry relative="1" as="geometry" />
        </mxCell>
        <mxCell id="xAsMjt-651Cm-5IpBTxu-12" value="SafetyPositionRandomizer" style="html=1;whiteSpace=wrap;" vertex="1" parent="1">
          <mxGeometry x="281" y="73" width="159" height="50" as="geometry" />
        </mxCell>
      </root>
    </mxGraphModel>
  </diagram>
</mxfile>
